<svg xmlns="http://www.w3.org/2000/svg" version="1.1" xmlns:xlink="http://www.w3.org/1999/xlink" xmlns:svgjs="http://svgjs.dev/svgjs" width="1440" height="560" preserveAspectRatio="none" viewBox="0 0 1440 560"><g mask="url(&quot;#SvgjsMask1007&quot;)" fill="none"><rect width="1440" height="560" x="0" y="0" fill="rgba(50, 50, 93, 1)"></rect><path d="M1256.9000317028033 491.7321991416048L1270.3354231073768 601.1546811358819 1379.757905101654 587.7192897313085 1366.3225136970805 478.29680773703143z" fill="rgba(107, 107, 196, 0.32)" class="triangle-float2"></path><path d="M242.7216596004717 238.8314847250913L205.62381651136394 377.2825199848594 381.17269486023986 275.92932781419904z" fill="rgba(107, 107, 196, 0.32)" class="triangle-float2"></path><path d="M832.353470962117 417.15866010318337L879.5788212823987 489.87932246525514 965.0471396653655 382.6809658037965z" fill="rgba(107, 107, 196, 0.32)" class="triangle-float2"></path><path d="M44.43 198.08 a126.2 126.2 0 1 0 252.4 0 a126.2 126.2 0 1 0 -252.4 0z" fill="rgba(107, 107, 196, 0.32)" class="triangle-float1"></path><path d="M707.3007824687793 430.4382275144706L657.9434741933196 573.7822591008594 801.2875057797085 623.139567376319 850.644814055168 479.7955357899302z" fill="rgba(107, 107, 196, 0.32)" class="triangle-float3"></path><path d="M235.62 120.58 a118.76 118.76 0 1 0 237.52 0 a118.76 118.76 0 1 0 -237.52 0z" fill="rgba(107, 107, 196, 0.32)" class="triangle-float1"></path><path d="M1169.001855401289 292.1411972680523L1064.2959858968022 299.46294491427426 1071.6177335430243 404.1688144187611 1176.3236030475111 396.84706677253905z" fill="rgba(107, 107, 196, 0.32)" class="triangle-float2"></path><path d="M1199.18 136.56 a139.97 139.97 0 1 0 279.94 0 a139.97 139.97 0 1 0 -279.94 0z" fill="rgba(107, 107, 196, 0.32)" class="triangle-float3"></path><path d="M775.9048730685295 491.6706394485957L735.0926700058521 400.00493054577623 618.0002081829616 507.05608959120195z" fill="rgba(107, 107, 196, 0.32)" class="triangle-float3"></path><path d="M1217.3 223.29 a106.93 106.93 0 1 0 213.86 0 a106.93 106.93 0 1 0 -213.86 0z" fill="rgba(107, 107, 196, 0.32)" class="triangle-float1"></path><path d="M558.11 110.42 a162.29 162.29 0 1 0 324.58 0 a162.29 162.29 0 1 0 -324.58 0z" fill="rgba(107, 107, 196, 0.32)" class="triangle-float1"></path><path d="M575.319,434.181C626.115,436.942,678.035,420.047,705.949,377.518C736.584,330.844,745.465,268.233,714.91,221.506C686.307,177.764,627.575,176.82,575.319,177.749C525.328,178.638,469.123,183.053,444.071,226.323C418.986,269.649,440.443,322.207,467.172,364.538C491.708,403.396,529.431,431.686,575.319,434.181" fill="rgba(107, 107, 196, 0.32)" class="triangle-float1"></path></g><defs><mask id="SvgjsMask1007"><rect width="1440" height="560" fill="#ffffff"></rect></mask><style>
                @keyframes float1 {
                    0%{transform: translate(0, 0)}
                    50%{transform: translate(-10px, 0)}
                    100%{transform: translate(0, 0)}
                }

                .triangle-float1 {
                    animation: float1 5s infinite;
                }

                @keyframes float2 {
                    0%{transform: translate(0, 0)}
                    50%{transform: translate(-5px, -5px)}
                    100%{transform: translate(0, 0)}
                }

                .triangle-float2 {
                    animation: float2 4s infinite;
                }

                @keyframes float3 {
                    0%{transform: translate(0, 0)}
                    50%{transform: translate(0, -10px)}
                    100%{transform: translate(0, 0)}
                }

                .triangle-float3 {
                    animation: float3 6s infinite;
                }
            </style></defs></svg>